<svg xmlns="http://www.w3.org/2000/svg" width="48" height="48" fill="none"><rect width="48" height="48" fill="#FF0420" rx="12"></rect><path fill="#fff" fill-rule="evenodd" d="M24 36c6.627 0 12-5.373 12-12s-5.373-12-12-12-12 5.373-12 12 5.373 12 12 12m-3.498-8.81q-1.072 0-1.756-.505-.675-.513-.676-1.459 0-.198.045-.486.118-.65.334-1.558.613-2.477 3.16-2.477.695 0 1.244.234.549.225.864.684.315.45.316 1.081 0 .189-.045.477a20 20 0 0 1-.325 1.559q-.315 1.233-1.09 1.846-.774.604-2.07.604m.126-1.298q.505 0 .856-.297.36-.297.513-.91a22 22 0 0 0 .316-1.476q.036-.19.036-.388 0-.82-.856-.82-.505 0-.865.298-.351.297-.504.91a20 20 0 0 0-.324 1.477q-.036.18-.036.378 0 .828.864.828m3.666 1.144a.19.19 0 0 0 .153.063h1.225q.09 0 .171-.063a.26.26 0 0 0 .1-.162l.413-1.972h1.216q1.18 0 1.856-.496.684-.495.91-1.53.053-.245.053-.47 0-.782-.612-1.197-.604-.414-1.603-.414H25.78a.28.28 0 0 0-.171.063.26.26 0 0 0-.1.162l-1.242 5.854a.22.22 0 0 0 .027.162m3.999-3.585a1.07 1.07 0 0 1-.658.208H26.6l.342-1.612h1.08q.37 0 .523.144.153.135.153.396 0 .117-.027.27a.97.97 0 0 1-.378.595" clip-rule="evenodd"></path></svg>
