<svg xmlns="http://www.w3.org/2000/svg" width="48" height="48" fill="none"><rect width="48" height="48" fill="#38496A" rx="12"></rect><path fill="#fff" d="m26.419 25.825-1.163 3.187a.4.4 0 0 0 0 .273l2 5.484 2.313-1.335-2.776-7.61a.199.199 0 0 0-.374 0M28.749 20.466a.199.199 0 0 0-.374 0l-1.163 3.186a.4.4 0 0 0 0 .274l3.277 8.978 2.313-1.336z"></path><path fill="#fff" d="M24.64 13.487q.085.001.165.043l8.82 5.092c.103.059.166.17.166.285V29.09a.33.33 0 0 1-.166.285l-8.82 5.092a.3.3 0 0 1-.166.043.35.35 0 0 1-.165-.043l-8.821-5.088a.33.33 0 0 1-.165-.285V18.91a.33.33 0 0 1 .165-.286l8.82-5.092a.33.33 0 0 1 .166-.045m0-1.487c-.314 0-.63.08-.911.244l-8.819 5.09c-.563.325-.91.925-.91 1.576v10.18c0 .65.347 1.251.91 1.576l8.82 5.092a1.814 1.814 0 0 0 1.82 0l8.822-5.092c.563-.325.91-.925.91-1.576V18.91c0-.65-.346-1.251-.91-1.576l-8.823-5.09a1.8 1.8 0 0 0-.91-.244"></path><path fill="#fff" d="M23.896 18.18H21.66a.4.4 0 0 0-.374.263L16.492 31.58l2.313 1.336 5.278-14.467a.198.198 0 0 0-.187-.268M27.81 18.18h-2.237a.4.4 0 0 0-.374.263l-5.473 15 2.313 1.336 5.958-16.33a.2.2 0 0 0-.188-.268"></path></svg>
