<svg xmlns="http://www.w3.org/2000/svg" width="48" height="48" fill="none"><rect width="48" height="48" fill="#7640D8" rx="12"></rect><path fill="#fff" d="m30.304 28.698 6.167-3.561A1.06 1.06 0 0 0 37 24.22V17.1c0-.377-.203-.728-.529-.917l-6.167-3.56a1.06 1.06 0 0 0-1.058 0l-6.167 3.56c-.327.189-.529.54-.529.917v12.727l-4.325 2.496-4.324-2.496v-4.994l4.324-2.497 2.853 1.647v-3.35l-2.324-1.342a1.06 1.06 0 0 0-1.058 0l-6.167 3.561a1.06 1.06 0 0 0-.529.917v7.121c0 .377.203.728.529.917l6.167 3.561c.326.188.731.188 1.058 0l6.167-3.56c.327-.189.529-.54.529-.917V18.163l.078-.044 4.247-2.452 4.324 2.496v4.994l-4.324 2.497-2.848-1.645v3.35l2.319 1.34c.327.188.732.188 1.058 0"></path></svg>
